<svg width="342" height="399" viewBox="0 0 342 399" fill="none" xmlns="http://www.w3.org/2000/svg">
<path d="M96.2995 4.64H104.49C107.95 4.64 110.61 5.57 112.47 7.43C114.35 9.27 115.29 11.9 115.29 15.32C115.29 17.6 114.87 19.54 114.03 21.14C113.19 22.72 111.96 23.93 110.34 24.77C108.74 25.59 106.78 26 104.46 26H96.2995V4.64ZM104.43 21.95C105.67 21.95 106.72 21.69 107.58 21.17C108.46 20.65 109.12 19.9 109.56 18.92C110.02 17.94 110.25 16.74 110.25 15.32C110.25 13.2 109.75 11.57 108.75 10.43C107.75 9.27 106.31 8.69 104.43 8.69H101.22V21.95H104.43Z" fill="black"/>
<!-- SVG content truncated for brevity - full SVG content from your example would go here -->
</svg>